<?xml version="1.0" standalone="no"?>
<!DOCTYPE svg PUBLIC "-//W3C//DTD SVG 20010904//EN"
 "http://www.w3.org/TR/2001/REC-SVG-20010904/DTD/svg10.dtd">
<svg version="1.0" xmlns="http://www.w3.org/2000/svg"
 width="450.000000pt" height="450.000000pt" viewBox="0 0 450.000000 450.000000"
 preserveAspectRatio="xMidYMid meet">

<g transform="translate(0.000000,450.000000) scale(0.100000,-0.100000)"
fill="#000000" stroke="none">
<path d="M1427 3744 c-43 -25 -76 -48 -74 -51 3 -2 42 17 87 42 71 40 86 45
106 36 33 -14 30 -23 -14 -47 -44 -24 -458 -263 -617 -356 -82 -48 -114 -72
-127 -97 -14 -28 -16 -70 -14 -337 1 -167 -1 -304 -5 -304 -4 0 -16 8 -28 18
-19 16 -21 29 -24 157 l-3 140 -2 -148 -2 -147 46 -30 c27 -17 52 -26 62 -22
9 3 118 64 242 136 124 71 288 166 365 210 166 96 178 105 193 133 13 24 17
640 4 659 -12 19 -76 54 -97 54 -11 0 -55 -21 -98 -46z m183 -328 c0 -178 -3
-331 -6 -340 -3 -9 -83 -60 -177 -115 -95 -54 -271 -156 -391 -225 -121 -70
-225 -125 -233 -122 -10 4 -13 68 -13 325 0 318 0 320 23 344 12 14 90 63 172
110 166 93 510 292 565 326 19 11 41 21 48 21 9 0 12 -71 12 -324z"/>
<path d="M999 3251 c-44 -27 -94 -80 -85 -88 2 -3 23 14 46 37 43 43 93 70
130 70 12 0 35 -14 52 -30 28 -28 30 -35 26 -90 -1 -33 0 -60 5 -60 4 0 7 6 8
13 0 6 3 25 5 40 7 40 -13 93 -43 117 -37 29 -90 26 -144 -9z"/>
<path d="M997 3162 c-19 -21 -23 -67 -5 -78 16 -10 60 44 56 70 -4 27 -30 32
-51 8z"/>
<path d="M859 3074 c-6 -16 -13 -56 -16 -90 -11 -123 55 -174 162 -125 40 18
125 101 125 121 0 6 -26 -16 -58 -49 -98 -100 -181 -105 -211 -13 -12 38 -11
52 3 110 17 69 14 95 -5 46z"/>
<path d="M1010 3064 c-30 -18 -62 -65 -78 -112 -13 -39 -18 -40 86 18 84 46
96 64 66 94 -19 20 -42 20 -74 0z"/>
<path d="M3090 3588 c-243 -140 -291 -170 -286 -175 3 -3 78 37 168 89 90 53
181 104 204 116 l40 21 45 -26 c24 -13 45 -26 47 -27 3 -4 -55 -37 -373 -220
-126 -73 -291 -168 -365 -211 -74 -43 -202 -117 -285 -165 -82 -47 -242 -140
-355 -205 -113 -65 -241 -139 -285 -164 -66 -38 -84 -54 -103 -91 l-23 -45 3
-698 c2 -468 0 -697 -7 -697 -17 0 -85 50 -86 63 -1 7 -2 124 -4 260 -2 137
-6 251 -9 255 -3 3 -6 -114 -6 -261 0 -305 -9 -276 103 -336 l64 -35 132 76
c72 42 133 72 137 67 3 -5 13 -8 22 -8 15 1 15 2 0 6 -10 2 -18 8 -18 11 0 4
80 53 178 108 97 56 274 158 392 226 414 239 625 361 660 381 123 69 228 133
249 151 52 46 51 34 51 778 0 381 -3 703 -6 716 -7 23 -133 102 -164 101 -8 0
-62 -27 -120 -61z m254 -24 c14 -5 16 -27 16 -138 l0 -132 -137 -79 c-76 -43
-221 -127 -323 -186 -102 -59 -279 -162 -394 -228 l-210 -121 -26 63 c-18 42
-33 63 -46 65 -22 3 -286 -145 -320 -180 -14 -14 -34 -61 -51 -121 l-28 -98
-130 -76 c-72 -41 -136 -77 -143 -80 -11 -5 -13 20 -10 130 3 137 3 137 33
167 17 16 95 67 175 113 80 46 262 151 405 234 143 82 382 220 530 305 149 86
351 203 450 261 99 58 183 106 187 106 3 1 13 -2 22 -5z m16 -331 c1 -21 3
-270 7 -554 4 -376 2 -525 -6 -551 -16 -49 -47 -73 -206 -165 -77 -45 -225
-130 -330 -191 -274 -158 -542 -313 -845 -487 -146 -84 -292 -169 -325 -189
-65 -39 -99 -45 -109 -20 -3 9 -6 271 -6 584 l0 568 133 75 c72 42 140 82 149
89 10 7 29 55 44 108 15 54 36 104 48 117 29 30 298 183 309 176 5 -3 23 -35
39 -70 l29 -64 32 19 c18 11 120 70 227 132 231 133 555 320 695 402 55 32
103 58 108 58 4 0 7 -17 7 -37z"/>
<path d="M3201 3384 c-22 -28 -28 -78 -11 -89 28 -18 88 63 74 99 -9 24 -40
19 -63 -10z"/>
<path d="M2950 3205 c-80 -47 -149 -86 -155 -88 -5 -3 -7 -7 -4 -11 4 -4 29 6
55 22 27 16 97 57 157 91 59 35 107 65 107 67 0 10 -24 -2 -160 -81z"/>
<path d="M2612 3009 c-57 -33 -102 -63 -99 -66 5 -5 217 115 217 123 0 10 -22
0 -118 -57z"/>
<path d="M3115 2615 c-19 -16 -19 -16 5 -9 54 15 55 15 58 -76 3 -90 12 -111
42 -103 29 8 25 -16 -7 -50 -26 -26 -28 -36 -33 -134 -5 -105 -5 -106 -40
-134 -18 -16 -31 -31 -28 -34 10 -11 78 65 79 88 1 12 2 56 4 97 1 41 3 78 4
81 0 3 15 20 32 38 37 40 35 65 -6 66 l-30 0 -5 90 c-5 87 -6 90 -30 93 -14 2
-34 -4 -45 -13z"/>
<path d="M3118 2454 c-5 -4 -8 -55 -8 -113 0 -72 3 -102 10 -95 7 7 10 52 8
113 -2 57 -6 99 -10 95z"/>
<path d="M2995 2387 c-80 -48 -75 -38 -75 -153 0 -63 4 -104 10 -104 6 0 10
20 10 44 0 42 2 46 45 71 64 37 82 69 76 138 -1 20 -35 22 -66 4z m46 -66
c-13 -30 -84 -85 -95 -74 -3 4 -6 25 -6 48 0 38 3 43 42 63 37 18 45 19 57 7
11 -11 12 -19 2 -44z"/>
<path d="M1858 2278 c-130 -75 -202 -121 -212 -139 -13 -23 -16 -64 -16 -242
0 -119 3 -222 6 -231 8 -22 40 -20 81 5 45 28 34 38 -12 10 -20 -11 -40 -21
-46 -21 -5 0 -9 94 -9 233 0 229 0 234 23 254 26 25 370 223 386 223 7 0 11
-25 11 -65 0 -37 4 -65 10 -65 14 0 13 123 -2 138 -7 7 -15 12 -18 12 -3 0
-94 -50 -202 -112z"/>
<path d="M2677 2360 c-33 -27 -47 -75 -47 -171 0 -71 -2 -77 -30 -104 -39 -37
-38 -71 3 -67 l27 3 0 -76 c0 -42 5 -85 10 -96 13 -23 52 -25 70 -4 11 14 10
14 -14 5 -15 -5 -32 -8 -37 -4 -5 3 -9 43 -9 88 0 90 -9 110 -48 99 -29 -7
-28 -2 13 47 35 41 35 43 35 137 l0 96 36 33 c39 37 32 46 -9 14z"/>
<path d="M2774 2243 c-6 -16 -21 -62 -34 -103 -12 -41 -26 -85 -31 -98 -12
-30 -11 -45 0 -37 5 3 12 19 16 36 5 20 20 38 47 55 57 36 65 38 73 15 7 -24
25 -28 25 -6 0 19 -70 165 -79 165 -3 0 -11 -12 -17 -27z m36 -53 c7 -22 11
-42 9 -43 -2 -2 -19 -14 -36 -26 -28 -19 -33 -20 -33 -6 0 24 31 115 40 115 4
0 13 -18 20 -40z"/>
<path d="M1897 2155 c-4 -11 -20 -73 -37 -138 -29 -114 -36 -156 -25 -145 10
9 76 280 72 292 -2 6 -7 2 -10 -9z"/>
<path d="M2070 2039 c0 -66 -4 -128 -10 -138 -5 -10 -66 -51 -135 -92 -69 -40
-125 -77 -125 -82 0 -20 262 144 277 173 16 31 18 260 3 260 -6 0 -10 -47 -10
-121z"/>
<path d="M1975 2109 l-50 -6 45 -1 44 -2 -42 -43 c-41 -41 -50 -57 -34 -57 11
0 103 108 95 112 -5 2 -30 1 -58 -3z"/>
<path d="M1728 1965 c-27 -29 -48 -56 -48 -59 0 -6 102 3 109 10 2 2 -15 4
-39 4 l-44 0 42 43 c23 23 42 46 42 50 0 16 -18 3 -62 -48z"/>
<path d="M2380 1908 l-1 -43 -107 -61 c-270 -152 -432 -249 -432 -257 0 -4 3
-6 8 -4 21 13 398 230 464 268 75 42 77 45 78 82 0 20 5 37 10 37 10 0 109
-47 119 -56 5 -4 -108 -192 -120 -200 -5 -3 -9 11 -9 30 0 20 -2 36 -4 36 -13
0 -168 -94 -160 -97 6 -2 42 15 80 37 l69 40 3 -45 c2 -25 6 -45 10 -45 8 1
152 234 152 247 0 8 -136 73 -152 73 -5 0 -8 -19 -8 -42z"/>
<path d="M1895 1460 l-240 -139 -3 52 c-3 56 -6 53 73 100 26 15 45 30 42 33
-3 3 -35 -12 -71 -33 l-66 -38 0 -67 c0 -72 7 -81 45 -54 11 7 112 66 225 131
260 150 268 155 250 154 -8 0 -123 -63 -255 -139z"/>
<path d="M1211 3619 c-18 -11 -31 -22 -28 -25 4 -5 77 34 77 42 0 9 -16 3 -49
-17z"/>
<path d="M925 3455 c-99 -57 -189 -116 -200 -130 -17 -22 -19 -42 -20 -165 0
-77 3 -140 7 -140 4 0 8 63 8 140 0 133 1 142 23 163 12 12 102 69 200 125 97
57 177 105 177 108 0 10 -25 -3 -195 -101z"/>
<path d="M2645 3331 c-16 -10 -142 -83 -279 -162 -137 -78 -244 -145 -239
-146 6 -2 41 14 77 36 37 23 68 41 71 41 2 0 48 26 102 58 54 33 144 85 201
117 95 54 125 75 105 75 -4 0 -21 -9 -38 -19z"/>
<path d="M1759 2820 c-316 -182 -307 -176 -329 -212 -18 -30 -20 -51 -20 -229
l0 -195 -32 -17 -33 -17 33 6 32 6 2 -194 c2 -113 5 -27 8 207 6 462 -1 433
111 496 35 19 125 71 199 114 74 43 155 90 180 104 78 44 85 49 79 55 -3 3
-106 -53 -230 -124z"/>
<path d="M1150 2746 c0 -14 5 -28 10 -31 6 -4 10 7 10 24 0 17 -4 31 -10 31
-5 0 -10 -11 -10 -24z"/>
<path d="M1159 2673 c0 -5 -2 -16 -4 -25 -2 -10 1 -20 6 -24 5 -3 9 9 9 25 0
17 -2 31 -5 31 -3 0 -5 -3 -6 -7z"/>
<path d="M1162 2560 c0 -19 2 -27 5 -17 2 9 2 25 0 35 -3 9 -5 1 -5 -18z"/>
<path d="M1162 2460 c0 -19 2 -27 5 -17 2 9 2 25 0 35 -3 9 -5 1 -5 -18z"/>
<path d="M1162 2370 c0 -19 2 -27 5 -17 2 9 2 25 0 35 -3 9 -5 1 -5 -18z"/>
<path d="M1162 2280 c0 -19 2 -27 5 -17 2 9 2 25 0 35 -3 9 -5 1 -5 -18z"/>
<path d="M1160 2184 c0 -14 4 -23 9 -20 5 3 7 15 4 26 -7 28 -13 25 -13 -6z"/>
<path d="M1293 2128 c-13 -6 -23 -15 -23 -20 0 -13 13 -9 40 12 27 21 18 25
-17 8z"/>
<path d="M1160 2088 c0 -17 3 -28 7 -24 10 10 11 56 1 56 -4 0 -8 -14 -8 -32z"/>
<path d="M1204 2075 c-10 -8 -14 -15 -8 -15 5 0 19 7 30 15 10 8 14 15 8 15
-5 0 -19 -7 -30 -15z"/>
<path d="M3440 1785 c-17 -21 2 -65 29 -65 30 0 46 26 33 55 -13 28 -43 33
-62 10z"/>
<path d="M3105 1664 c-11 -3 -46 -12 -78 -20 -131 -32 -249 -111 -291 -196
-24 -47 -26 -63 -26 -172 0 -67 5 -138 11 -159 10 -38 68 -113 69 -90 0 6 -5
15 -10 18 -27 16 -50 86 -50 149 l0 66 43 -47 c76 -82 179 -133 326 -158 273
-48 569 37 663 190 l18 30 0 -59 c0 -32 -5 -77 -12 -99 -15 -49 -96 -133 -156
-162 -38 -18 -54 -35 -34 -35 19 0 129 78 156 111 49 58 56 88 58 237 1 120
-2 142 -20 178 -42 83 -159 162 -294 201 -53 14 -332 27 -373 17z m373 -34
c95 -27 155 -58 214 -109 110 -97 116 -213 15 -314 -93 -94 -257 -147 -452
-147 -294 0 -525 129 -525 294 0 113 85 201 254 263 130 47 354 53 494 13z"/>
<path d="M3124 1547 c-132 -34 -214 -107 -214 -189 0 -33 36 -105 47 -94 3 3
-1 14 -10 23 -38 44 -29 118 21 165 69 65 222 107 340 92 51 -6 120 -26 176
-49 13 -6 17 -5 12 3 -3 6 -32 21 -64 33 -71 27 -231 35 -308 16z"/>
<path d="M3576 1393 c4 -15 7 -30 6 -33 0 -38 -7 -55 -34 -85 -65 -75 -187
-112 -337 -102 -49 3 -105 13 -126 21 -21 9 -40 14 -43 11 -10 -10 71 -36 141
-45 184 -23 372 49 408 157 11 34 5 88 -12 99 -6 3 -7 -5 -3 -23z"/>
<path d="M1083 1412 l27 -28 -25 -24 c-14 -13 -23 -26 -20 -28 3 -3 16 5 30
18 l25 23 25 -23 c14 -13 25 -19 25 -13 0 5 -9 18 -20 28 -20 18 -20 18 7 47
31 33 20 38 -14 6 l-23 -21 -23 21 c-34 32 -45 27 -14 -6z"/>
<path d="M1910 1153 c0 -7 32 -32 43 -33 17 0 5 18 -18 28 -14 6 -25 9 -25 5z"/>
<path d="M2010 1090 c14 -10 27 -17 29 -14 6 5 -31 33 -44 33 -5 1 1 -8 15
-19z"/>
<path d="M2084 1045 c11 -8 25 -15 30 -15 6 0 2 7 -8 15 -11 8 -25 15 -30 15
-6 0 -2 -7 8 -15z"/>
<path d="M2985 1020 c-4 -6 -1 -17 5 -26 14 -16 40 -2 40 22 0 16 -36 19 -45
4z"/>
<path d="M3480 1011 c0 -22 23 -34 38 -19 15 15 3 38 -19 38 -12 0 -19 -7 -19
-19z"/>
<path d="M2155 1010 c9 -15 45 -32 45 -22 0 5 -12 14 -26 20 -14 7 -23 8 -19
2z"/>
<path d="M2244 955 c11 -8 25 -15 30 -15 6 0 2 7 -8 15 -11 8 -25 15 -30 15
-6 0 -2 -7 8 -15z"/>
<path d="M2865 954 c11 -8 18 -22 17 -32 -3 -12 -1 -13 10 -5 10 8 31 5 83
-12 108 -36 169 -44 312 -42 94 2 136 6 145 16 11 10 4 11 -37 4 -145 -23
-363 5 -476 62 -56 28 -85 33 -54 9z"/>
<path d="M2310 922 c0 -10 50 -35 57 -28 3 2 -9 12 -26 21 -17 8 -31 12 -31 7z"/>
<path d="M2818 894 c-30 -16 -35 -24 -15 -24 14 1 52 28 46 34 -2 2 -16 -2
-31 -10z"/>
<path d="M2410 860 c14 -10 27 -16 30 -13 6 6 -30 33 -44 33 -6 0 0 -9 14 -20z"/>
<path d="M2730 840 c-14 -11 -22 -20 -18 -20 14 0 58 23 58 32 0 13 -13 9 -40
-12z"/>
<path d="M2486 815 c10 -8 26 -14 34 -14 11 0 10 3 -4 14 -11 8 -27 15 -35 15
-11 0 -10 -4 5 -15z"/>
<path d="M2654 795 c-10 -8 -14 -15 -8 -15 5 0 19 7 30 15 10 8 14 15 8 15 -5
0 -19 -7 -30 -15z"/>
<path d="M2569 770 c13 -11 28 -20 35 -20 6 1 0 10 -13 20 -13 11 -28 20 -35
20 -6 -1 0 -10 13 -20z"/>
</g>
</svg>
