<svg width="550" height="400" viewBox="0 0 550 400" fill="none" xmlns="http://www.w3.org/2000/svg">
<path d="M338.244 243.014L348.829 249.172L351.628 250.75L338.244 258.536L324.809 250.75L327.353 249.325L338.244 243.014Z" fill="#D8DFEB" stroke="#D8DFEB" stroke-width="1.45" stroke-miterlimit="10"/>
<path d="M237.687 184.95L251.122 192.686L237.687 200.421L224.303 192.686L237.687 184.95Z" fill="#D8DFEB" stroke="#D8DFEB" stroke-width="1.45" stroke-miterlimit="10"/>
<path d="M304.706 223.678L318.141 231.413L304.706 239.148L291.322 231.413L304.706 223.678Z" fill="#D8DFEB" stroke="#D8DFEB" stroke-width="1.45" stroke-miterlimit="10"/>
<path d="M204.202 165.611L217.587 173.346L204.202 181.081L190.818 173.346L204.202 165.611Z" fill="#D8DFEB" stroke="#D8DFEB" stroke-width="1.45" stroke-miterlimit="10"/>
<path d="M271.224 204.341L284.608 212.076L271.224 219.811L257.789 212.076L271.224 204.341Z" fill="#D8DFEB" stroke="#D8DFEB" stroke-width="1.45" stroke-miterlimit="10"/>
<path d="M170.714 146.323L184.098 154.059L170.714 161.794L157.279 154.059L170.714 146.323Z" fill="#D8DFEB" stroke="#D8DFEB" stroke-width="1.45" stroke-miterlimit="10"/>
<path d="M163.438 166.176L185.575 153.402" stroke="black" stroke-width="1.45" stroke-miterlimit="10" stroke-linecap="round" stroke-linejoin="round"/>
<path d="M196.977 185.717L219.063 172.944" stroke="black" stroke-width="1.45" stroke-miterlimit="10" stroke-linecap="round" stroke-linejoin="round"/>
<path d="M230.613 205.156L252.547 192.485" stroke="black" stroke-width="1.45" stroke-miterlimit="10" stroke-linecap="round" stroke-linejoin="round"/>
<path d="M264.354 224.544L284.099 213.145" stroke="black" stroke-width="1.45" stroke-miterlimit="10" stroke-linecap="round" stroke-linejoin="round"/>
<path d="M297.48 243.475L317.786 231.72" stroke="black" stroke-width="1.45" stroke-miterlimit="10" stroke-linecap="round" stroke-linejoin="round"/>
<path d="M330.973 254.675L344.408 246.889V231.418L330.973 239.154V254.675Z" fill="#FF8000"/>
<path d="M330.974 254.675L317.59 246.889V231.418L330.974 239.154V254.675Z" fill="#FFA600"/>
<path d="M330.974 239.154L344.409 231.419L330.974 223.684L317.59 231.419L330.974 239.154Z" fill="#FFD200"/>
<path d="M330.973 238.331L344.408 230.596V215.125L330.973 222.86V238.331Z" fill="#FF8000"/>
<path d="M330.974 238.331L317.59 230.596V215.125L330.974 222.86V238.331Z" fill="#FFA600"/>
<path d="M330.974 222.862L344.409 215.126L330.974 207.391L317.59 215.126L330.974 222.862Z" fill="#FFD200"/>
<path d="M330.975 222.044L344.41 214.309V198.838L330.975 206.574V222.044Z" fill="#FF8000"/>
<path d="M330.974 222.044L317.59 214.309V198.838L330.974 206.574V222.044Z" fill="#FFA600"/>
<path d="M330.974 206.575L344.409 198.84L330.974 191.105L317.59 198.84L330.974 206.575Z" fill="#FFD200"/>
<path d="M330.973 205.766L344.408 198.031V182.56L330.973 190.296V205.766Z" fill="#FF8000"/>
<path d="M330.974 205.766L317.59 198.031V182.56L330.974 190.296V205.766Z" fill="#FFA600"/>
<path d="M330.974 190.297L344.409 182.562L330.974 174.827L317.59 182.562L330.974 190.297Z" fill="#FFD200"/>
<path d="M330.973 189.477L344.408 181.741V166.271L330.973 174.006V189.477Z" fill="#FF8000"/>
<path d="M330.974 189.477L317.59 181.741V166.271L330.974 174.006V189.477Z" fill="#FFA600"/>
<path d="M330.974 174.006L344.409 166.271L330.974 158.536L317.59 166.271L330.974 174.006Z" fill="#FFD200"/>
<path d="M330.975 173.193L344.41 165.457V149.987L330.975 157.722V173.193Z" fill="#FF8000"/>
<path d="M330.974 173.193L317.59 165.457V149.987L330.974 157.722V173.193Z" fill="#FFA600"/>
<path d="M330.974 157.724L344.409 149.988L330.974 142.253L317.59 149.988L330.974 157.724Z" fill="#FFD200"/>
<path d="M230.451 196.554L243.886 188.819V173.348L230.451 181.084V196.554Z" fill="#FF8000"/>
<path d="M230.451 196.554L217.066 188.819V173.348L230.451 181.084V196.554Z" fill="#FFA600"/>
<path d="M230.451 181.085L243.886 173.35L230.451 165.615L217.066 173.35L230.451 181.085Z" fill="#FFD200"/>
<path d="M230.451 180.266L243.886 172.53V157.06L230.451 164.795V180.266Z" fill="#FF8000"/>
<path d="M230.451 180.266L217.066 172.53V157.06L230.451 164.795V180.266Z" fill="#FFA600"/>
<path d="M230.451 164.797L243.886 157.061L230.451 149.326L217.066 157.061L230.451 164.797Z" fill="#FFD200"/>
<path d="M230.449 163.974L243.884 156.238V140.768L230.449 148.503V163.974Z" fill="#FF8000"/>
<path d="M230.451 163.974L217.066 156.238V140.768L230.451 148.503V163.974Z" fill="#FFA600"/>
<path d="M230.451 148.505L243.886 140.769L230.451 133.034L217.066 140.769L230.451 148.505Z" fill="#FFD200"/>
<path d="M297.488 235.27L310.872 227.535V212.064L297.488 219.799V235.27Z" fill="#00E8BC"/>
<path d="M297.49 235.27L284.055 227.535V212.064L297.49 219.799V235.27Z" fill="#00FCD4"/>
<path d="M297.49 219.801L310.874 212.065L297.49 204.33L284.055 212.065L297.49 219.801Z" fill="#5CFFEB"/>
<path d="M297.488 218.995L310.872 211.26V195.789L297.488 203.524V218.995Z" fill="#00E8BC"/>
<path d="M297.49 218.995L284.055 211.26V195.789L297.49 203.524V218.995Z" fill="#00FCD4"/>
<path d="M297.49 203.526L310.874 195.79L297.49 188.055L284.055 195.79L297.49 203.526Z" fill="#5CFFEB"/>
<path d="M297.488 202.706L310.872 194.971V179.5L297.488 187.236V202.706Z" fill="#00E8BC"/>
<path d="M297.49 202.706L284.055 194.971V179.5L297.49 187.236V202.706Z" fill="#00FCD4"/>
<path d="M297.49 187.237L310.874 179.502L297.49 171.766L284.055 179.502L297.49 187.237Z" fill="#5CFFEB"/>
<path d="M297.488 186.422L310.872 178.687V163.217L297.488 170.952V186.422Z" fill="#00E8BC"/>
<path d="M297.49 186.422L284.055 178.687V163.217L297.49 170.952V186.422Z" fill="#00FCD4"/>
<path d="M297.49 170.951L310.874 163.216L297.49 155.43L284.055 163.216L297.49 170.951Z" fill="#5CFFEB"/>
<path d="M297.488 170.138L310.872 162.403V146.881L297.488 154.668V170.138Z" fill="#00E8BC"/>
<path d="M297.49 170.138L284.055 162.403V146.881L297.49 154.668V170.138Z" fill="#00FCD4"/>
<path d="M297.49 154.668L310.874 146.882L297.49 139.147L284.055 146.882L297.49 154.668Z" fill="#5CFFEB"/>
<path d="M196.969 177.216L210.353 169.481V154.01L196.969 161.745V177.216Z" fill="#00E8BC"/>
<path d="M196.97 177.216L183.535 169.481V154.01L196.97 161.745V177.216Z" fill="#00FCD4"/>
<path d="M196.97 161.747L210.354 154.012L196.97 146.276L183.535 154.012L196.97 161.747Z" fill="#5CFFEB"/>
<path d="M196.969 160.923L210.353 153.187V137.717L196.969 145.452V160.923Z" fill="#00E8BC"/>
<path d="M196.97 160.923L183.535 153.187V137.717L196.97 145.452V160.923Z" fill="#00FCD4"/>
<path d="M196.97 145.452L210.354 137.716L196.97 129.93L183.535 137.716L196.97 145.452Z" fill="#5CFFEB"/>
<path d="M264.002 215.947L277.386 208.212V192.69L264.002 200.476V215.947Z" fill="#0071FF"/>
<path d="M264.003 215.947L250.568 208.212V192.69L264.003 200.476V215.947Z" fill="#00B1FF"/>
<path d="M264.003 200.477L277.387 192.691L264.003 184.955L250.568 192.691L264.003 200.477Z" fill="#79D3FA"/>
<path d="M264.002 199.664L277.386 191.929V176.407L264.002 184.142V199.664Z" fill="#0071FF"/>
<path d="M264.003 199.664L250.568 191.929V176.407L264.003 184.142V199.664Z" fill="#00B1FF"/>
<path d="M264.003 184.144L277.387 176.409L264.003 168.673L250.568 176.409L264.003 184.144Z" fill="#79D3FA"/>
<path d="M264.002 183.383L277.386 175.597V160.127L264.002 167.862V183.383Z" fill="#0071FF"/>
<path d="M264.003 183.383L250.568 175.597V160.127L264.003 167.862V183.383Z" fill="#00B1FF"/>
<path d="M264.003 167.862L277.387 160.127L264.003 152.392L250.568 160.127L264.003 167.862Z" fill="#79D3FA"/>
<path d="M264.002 167.048L277.386 159.313V143.842L264.002 151.577V167.048Z" fill="#0071FF"/>
<path d="M264.003 167.048L250.568 159.313V143.842L264.003 151.577V167.048Z" fill="#00B1FF"/>
<path d="M264.003 151.579L277.387 143.843L264.003 136.108L250.568 143.843L264.003 151.579Z" fill="#79D3FA"/>
<path d="M163.443 157.935L176.878 150.2V134.679L163.443 142.414V157.935Z" fill="#0071FF"/>
<path d="M163.445 157.935L150.061 150.2V134.679L163.445 142.414V157.935Z" fill="#00B1FF"/>
<path d="M163.445 142.415L176.88 134.679L163.445 126.944L150.061 134.679L163.445 142.415Z" fill="#79D3FA"/>
<path d="M317.588 150.5V246.327C317.588 246.683 317.791 246.988 318.046 247.141L330.514 254.316C330.819 254.469 331.176 254.469 331.43 254.316L343.898 247.141C344.203 246.988 344.356 246.683 344.356 246.327V150.5C344.356 150.144 344.153 149.839 343.898 149.686L331.43 142.511C331.125 142.358 330.768 142.358 330.514 142.511L318.046 149.686C317.741 149.89 317.588 150.195 317.588 150.5Z" stroke="black" stroke-width="1.45" stroke-miterlimit="10" stroke-linecap="round" stroke-linejoin="round"/>
<path d="M318.047 150.247L330.515 157.423C330.82 157.576 331.177 157.576 331.431 157.423L341.609 151.571" stroke="black" stroke-width="1.45" stroke-miterlimit="10" stroke-linecap="round" stroke-linejoin="round"/>
<path d="M330.973 157.727V244.393" stroke="black" stroke-width="1.45" stroke-miterlimit="10" stroke-linecap="round" stroke-linejoin="round"/>
<path d="M284.047 147.447V226.988C284.047 227.345 284.25 227.65 284.505 227.803L296.973 234.978C297.278 235.131 297.635 235.131 297.889 234.978L310.357 227.803C310.662 227.65 310.815 227.345 310.815 226.988V147.447C310.815 147.091 310.612 146.785 310.357 146.633L297.889 139.457C297.584 139.304 297.227 139.304 296.973 139.457L284.505 146.633C284.25 146.785 284.047 147.091 284.047 147.447Z" stroke="black" stroke-width="1.45" stroke-miterlimit="10" stroke-linecap="round" stroke-linejoin="round"/>
<path d="M284.559 147.193L297.027 154.369C297.332 154.521 297.688 154.521 297.943 154.369L308.121 148.516" stroke="black" stroke-width="1.45" stroke-miterlimit="10" stroke-linecap="round" stroke-linejoin="round"/>
<path d="M297.48 154.671V225.052" stroke="black" stroke-width="1.45" stroke-miterlimit="10" stroke-linecap="round" stroke-linejoin="round"/>
<path d="M250.562 144.395V207.652C250.562 208.008 250.766 208.313 251.02 208.466L263.489 215.641C263.794 215.794 264.15 215.794 264.405 215.641L276.873 208.466C277.178 208.313 277.331 208.008 277.331 207.652V144.395C277.331 144.039 277.127 143.734 276.873 143.581L264.405 136.405C264.099 136.253 263.743 136.253 263.489 136.405L251.02 143.581C250.766 143.734 250.562 144.039 250.562 144.395Z" stroke="black" stroke-width="1.45" stroke-miterlimit="10" stroke-linecap="round" stroke-linejoin="round"/>
<path d="M253.666 145.613L263.488 151.313C263.793 151.466 264.149 151.466 264.404 151.313L274.582 145.461" stroke="black" stroke-width="1.45" stroke-miterlimit="10" stroke-linecap="round" stroke-linejoin="round"/>
<path d="M263.996 170.606V205.669" stroke="black" stroke-width="1.45" stroke-miterlimit="10" stroke-linecap="round" stroke-linejoin="round"/>
<path d="M217.076 141.342V188.314C217.076 188.67 217.28 188.975 217.534 189.128L230.002 196.303C230.308 196.456 230.664 196.456 230.918 196.303L243.386 189.128C243.692 188.975 243.844 188.67 243.844 188.314V141.342C243.844 140.986 243.641 140.68 243.386 140.528L230.918 133.301C230.613 133.149 230.257 133.149 230.002 133.301L217.534 140.528C217.229 140.68 217.076 140.986 217.076 141.342Z" stroke="black" stroke-width="1.45" stroke-miterlimit="10" stroke-linecap="round" stroke-linejoin="round"/>
<path d="M220.027 142.514L229.951 148.265C230.256 148.417 230.612 148.417 230.867 148.265L243.793 140.784" stroke="black" stroke-width="1.45" stroke-miterlimit="10" stroke-linecap="round" stroke-linejoin="round"/>
<path d="M230.461 152.64V196.558" stroke="black" stroke-width="1.45" stroke-miterlimit="10" stroke-linecap="round" stroke-linejoin="round"/>
<path d="M183.541 138.235V168.922C183.541 169.278 183.745 169.583 183.999 169.736L196.467 176.912C196.772 177.064 197.129 177.064 197.383 176.912L209.851 169.736C210.157 169.583 210.309 169.278 210.309 168.922V138.235C210.309 137.879 210.106 137.574 209.851 137.421L197.434 130.245C197.129 130.093 196.772 130.093 196.518 130.245L184.05 137.421C183.745 137.624 183.541 137.93 183.541 138.235Z" stroke="black" stroke-width="1.45" stroke-miterlimit="10" stroke-linecap="round" stroke-linejoin="round"/>
<path d="M184.053 137.982L196.521 145.158C196.826 145.31 197.182 145.31 197.437 145.158L207.615 139.305" stroke="black" stroke-width="1.45" stroke-miterlimit="10" stroke-linecap="round" stroke-linejoin="round"/>
<path d="M196.975 148.922V174.621" stroke="black" stroke-width="1.45" stroke-miterlimit="10" stroke-linecap="round" stroke-linejoin="round"/>
<path d="M150.057 135.234V149.585C150.057 149.941 150.26 150.246 150.515 150.399L162.983 157.575C163.288 157.727 163.644 157.727 163.899 157.575L176.367 150.399C176.672 150.246 176.825 149.941 176.825 149.585V135.234C176.825 134.878 176.621 134.572 176.367 134.42L163.899 127.244C163.593 127.091 163.237 127.091 162.983 127.244L150.515 134.42C150.209 134.572 150.057 134.878 150.057 135.234Z" stroke="black" stroke-width="1.45" stroke-miterlimit="10" stroke-linecap="round" stroke-linejoin="round"/>
<path d="M152.5 136.102L162.983 142.158C163.289 142.311 163.645 142.311 163.899 142.158L176.826 134.677" stroke="black" stroke-width="1.45" stroke-miterlimit="10" stroke-linecap="round" stroke-linejoin="round"/>
<path d="M163.441 142.408V156.098" stroke="black" stroke-width="1.45" stroke-miterlimit="10" stroke-linecap="round" stroke-linejoin="round"/>
<path d="M263.996 151.569V161.747" stroke="black" stroke-width="1.45" stroke-miterlimit="10" stroke-linecap="round" stroke-linejoin="round"/>
<path d="M142.266 63.9967V154.26L342.569 269.628" stroke="black" stroke-width="1.45" stroke-miterlimit="10" stroke-linecap="round" stroke-linejoin="round"/>
<path d="M142.266 154.262L144.301 153.091" stroke="black" stroke-width="1.45" stroke-miterlimit="10" stroke-linecap="round" stroke-linejoin="round"/>
<path d="M142.266 145.255L144.301 144.084" stroke="black" stroke-width="1.45" stroke-miterlimit="10" stroke-linecap="round" stroke-linejoin="round"/>
<path d="M142.266 136.251L144.301 135.08" stroke="black" stroke-width="1.45" stroke-miterlimit="10" stroke-linecap="round" stroke-linejoin="round"/>
<path d="M142.266 127.243L144.301 126.073" stroke="black" stroke-width="1.45" stroke-miterlimit="10" stroke-linecap="round" stroke-linejoin="round"/>
<path d="M142.266 118.234L144.301 117.063" stroke="black" stroke-width="1.45" stroke-miterlimit="10" stroke-linecap="round" stroke-linejoin="round"/>
<path d="M142.266 109.225L144.301 108.054" stroke="black" stroke-width="1.45" stroke-miterlimit="10" stroke-linecap="round" stroke-linejoin="round"/>
<path d="M142.266 100.219L144.301 99.0486" stroke="black" stroke-width="1.45" stroke-miterlimit="10" stroke-linecap="round" stroke-linejoin="round"/>
<path d="M142.266 91.2122L144.301 90.0417" stroke="black" stroke-width="1.45" stroke-miterlimit="10" stroke-linecap="round" stroke-linejoin="round"/>
<path d="M142.266 82.2036L144.301 81.0331" stroke="black" stroke-width="1.45" stroke-miterlimit="10" stroke-linecap="round" stroke-linejoin="round"/>
<path d="M142.266 73.1932L144.301 72.0227" stroke="black" stroke-width="1.45" stroke-miterlimit="10" stroke-linecap="round" stroke-linejoin="round"/>
<path d="M142.266 63.9959L144.301 62.8254" stroke="black" stroke-width="1.45" stroke-miterlimit="10" stroke-linecap="round" stroke-linejoin="round"/>
<path d="M281.117 310.094L245.867 330.442C239.608 334.058 228.68 333.604 221.456 329.43L160.858 294.444L124.566 273.49C117.341 269.321 116.558 263.009 122.811 259.394L158.062 239.046C164.32 235.431 175.248 235.884 182.472 240.059L279.362 295.999C286.587 300.167 287.37 306.479 281.117 310.094Z" fill="#D8DFEB"/>
<path d="M285.342 288.771L277.765 287.011L182.476 232.001C175.252 227.832 164.324 227.379 158.066 230.988L123.139 251.154L118.594 250.1V257.313C118.523 260.127 120.542 263.112 124.564 265.432L221.454 321.372C228.678 325.541 239.606 325.994 245.865 322.385L281.115 302.036C283.959 300.394 285.342 298.198 285.337 295.895V288.777L285.342 288.771Z" fill="#006FF7"/>
<path d="M235.274 325.397C230.364 325.397 225.194 324.208 221.167 321.882L124.277 265.948C120.238 263.616 117.96 260.49 118.013 257.363C118.013 257.345 118.013 257.334 118.013 257.316V250.103C118.013 249.927 118.095 249.756 118.23 249.644C118.372 249.532 118.554 249.491 118.731 249.532L123.053 250.533L157.773 230.485C164.185 226.788 175.395 227.241 182.773 231.498L277.985 286.467L285.48 288.204C285.745 288.268 285.933 288.504 285.933 288.775V295.899C285.933 295.899 285.933 295.952 285.933 295.975C285.91 298.548 284.308 300.88 281.417 302.546L246.167 322.895C243.258 324.573 239.355 325.397 235.274 325.397ZM119.19 257.257C119.19 257.257 119.19 257.304 119.19 257.328C119.12 260.03 121.192 262.798 124.866 264.923L221.756 320.863C228.81 324.932 239.496 325.385 245.578 321.876L280.828 301.528C283.366 300.062 284.762 298.066 284.756 295.899C284.756 295.875 284.756 295.846 284.756 295.822V289.246L277.631 287.591C277.572 287.579 277.52 287.556 277.472 287.526L182.184 232.511C175.13 228.442 164.444 227.983 158.362 231.498L123.435 251.664C123.306 251.74 123.153 251.758 123.005 251.729L119.178 250.839V257.257H119.19Z" fill="black"/>
<path d="M281.117 294.819L245.867 315.168C239.608 318.783 228.68 318.329 221.456 314.155L160.858 279.169L124.566 258.215C117.341 254.046 116.558 247.734 122.811 244.119L158.062 223.777C164.32 220.162 175.248 220.615 182.472 224.79L279.362 280.73C286.587 284.898 287.37 291.21 281.117 294.825V294.819Z" fill="white"/>
<path d="M235.268 318.185C230.357 318.185 225.188 316.995 221.16 314.67L124.271 258.735C120.284 256.433 118 253.342 118 250.251C118 247.655 119.607 245.299 122.516 243.621L157.766 223.267C164.178 219.564 175.389 220.023 182.766 224.28L279.656 280.22C283.642 282.522 285.926 285.613 285.926 288.704C285.926 291.295 284.319 293.65 281.41 295.334L246.16 315.682C243.252 317.36 239.348 318.185 235.268 318.185ZM168.665 221.925C164.796 221.925 161.111 222.702 158.361 224.292L123.111 244.64C120.579 246.1 119.183 248.096 119.183 250.251C119.183 252.906 121.256 255.627 124.865 257.711L221.755 313.651C228.809 317.725 239.495 318.179 245.577 314.664L280.828 294.315C283.359 292.855 284.755 290.859 284.755 288.704C284.755 286.049 282.682 283.329 279.073 281.245L182.177 225.298C178.315 223.067 173.351 221.925 168.659 221.925H168.665Z" fill="black"/>
<path d="M157.999 234.455L145.581 241.626C144.857 242.044 143.591 241.991 142.755 241.509C141.919 241.026 141.825 240.296 142.555 239.878L154.972 232.706C155.697 232.288 156.962 232.341 157.798 232.824C158.635 233.307 158.729 234.037 157.999 234.455Z" fill="white"/>
<path d="M144.352 242.49C143.692 242.49 143.009 242.332 142.462 242.014C141.832 241.649 141.473 241.13 141.473 240.577C141.473 240.088 141.761 239.647 142.256 239.358L154.673 232.187C155.574 231.669 157.075 231.722 158.088 232.305C158.718 232.67 159.077 233.188 159.077 233.741C159.077 234.23 158.789 234.671 158.294 234.96L145.877 242.131C145.459 242.373 144.917 242.49 144.352 242.49ZM156.192 233.011C155.839 233.011 155.503 233.076 155.268 233.217L142.85 240.389C142.715 240.465 142.656 240.542 142.656 240.589C142.656 240.665 142.762 240.836 143.056 241.001C143.704 241.378 144.752 241.431 145.294 241.119L157.711 233.947C157.847 233.871 157.906 233.794 157.906 233.747C157.906 233.671 157.8 233.5 157.505 233.335C157.14 233.123 156.646 233.017 156.192 233.017V233.011Z" fill="black"/>
<path d="M157.291 259.976C157.538 260.058 157.621 260.24 157.479 260.382L154.683 263.178C154.606 263.255 154.441 263.296 154.288 263.273L152.498 262.978L152.757 262.719H153.953L154.859 261.807L152.033 261.447L152.381 261.1L155.642 261.024L156.584 260.081C156.726 259.94 157.044 259.887 157.291 259.97V259.976ZM155.077 263.755L158.981 261.5L159.47 261.783L155.566 264.038L155.077 263.755Z" fill="white"/>
<path d="M250.132 281.379C250.032 281.379 249.932 281.356 249.838 281.303L187.603 245.369C187.321 245.204 187.227 244.845 187.386 244.563C187.55 244.28 187.91 244.186 188.192 244.345L250.426 280.278C250.709 280.443 250.803 280.802 250.644 281.085C250.532 281.273 250.338 281.379 250.132 281.379Z" fill="#D8DFEB"/>
<path d="M152.871 265.671C152.665 265.671 152.471 265.565 152.359 265.377C152.194 265.094 152.294 264.735 152.577 264.57L194.368 240.442C194.651 240.277 195.01 240.377 195.175 240.66C195.34 240.942 195.24 241.301 194.957 241.466L153.166 265.594C153.071 265.647 152.971 265.671 152.871 265.671Z" fill="black"/>
<path d="M215.106 301.602C214.899 301.602 214.705 301.497 214.593 301.308C214.428 301.025 214.529 300.666 214.811 300.501L256.603 276.373C256.885 276.208 257.245 276.308 257.409 276.591C257.574 276.874 257.474 277.233 257.192 277.398L215.4 301.526C215.306 301.579 215.206 301.602 215.106 301.602Z" fill="black"/>
<path d="M209.666 298.25C209.507 298.25 209.342 298.185 209.224 298.056L206.457 294.959C206.339 294.829 206.286 294.647 206.316 294.476C206.345 294.299 206.451 294.146 206.604 294.058L207.906 293.304C208.017 293.239 208.147 293.216 208.276 293.228L209.725 293.41L206.345 290.401C206.275 290.337 206.222 290.26 206.186 290.172L205.503 288.382L200.811 284.207C200.605 284.025 200.552 283.725 200.687 283.483C200.822 283.242 201.105 283.124 201.37 283.207L204.75 284.213L203.366 282.665C203.319 282.612 203.278 282.547 203.254 282.482L202.518 280.557C202.448 280.363 202.477 280.145 202.607 279.986C202.736 279.821 202.936 279.745 203.142 279.768L205.503 280.068L205.174 279.197L200.404 274.975C200.21 274.805 200.151 274.522 200.257 274.287C200.363 274.051 200.616 273.91 200.87 273.951L203.301 274.287L202.924 273.291C202.824 273.021 202.924 272.714 203.178 272.573L205.309 271.343L204.873 269.965L200.151 265.826C199.945 265.643 199.892 265.343 200.022 265.096C200.157 264.854 200.44 264.736 200.705 264.819L205.968 266.385L209.095 266.161L205.256 262.77C205.179 262.705 205.121 262.617 205.091 262.523L204.496 260.792L199.727 256.576C199.645 256.499 199.58 256.405 199.551 256.293L199.05 254.503C198.997 254.315 199.038 254.115 199.168 253.962C199.292 253.815 199.486 253.738 199.68 253.756L202.677 254.074L204.408 253.073L200.316 249.405C200.245 249.346 200.198 249.269 200.163 249.181L197.855 243.346C197.737 243.046 197.884 242.704 198.185 242.581C198.491 242.463 198.827 242.61 198.95 242.91L201.205 248.616L205.798 252.737C205.939 252.861 206.01 253.049 205.992 253.238C205.974 253.426 205.862 253.591 205.703 253.685L203.101 255.186C202.995 255.251 202.866 255.275 202.742 255.263L200.422 255.016L200.646 255.805L205.397 260.009C205.474 260.073 205.533 260.162 205.562 260.256L206.157 261.987L210.926 266.208C211.103 266.367 211.167 266.615 211.091 266.838C211.014 267.062 210.808 267.221 210.573 267.239L205.939 267.569C205.868 267.574 205.798 267.569 205.727 267.545L202.942 266.715L205.762 269.182C205.845 269.252 205.904 269.347 205.933 269.447L206.557 271.431C206.64 271.696 206.528 271.978 206.292 272.12L204.184 273.339L204.738 274.793C204.814 274.987 204.779 275.205 204.65 275.37C204.52 275.535 204.314 275.617 204.108 275.588L202.624 275.382L206.045 278.408C206.116 278.473 206.169 278.549 206.204 278.638L206.94 280.563C207.011 280.757 206.981 280.975 206.852 281.134C206.722 281.299 206.522 281.375 206.316 281.352L203.955 281.052L204.302 281.958L206.999 284.979C207.175 285.173 207.199 285.462 207.058 285.685C206.916 285.909 206.646 286.009 206.392 285.933L203.56 285.091L206.386 287.605C206.457 287.67 206.51 287.746 206.545 287.834L207.228 289.624L211.921 293.799C212.115 293.969 212.174 294.246 212.068 294.482C211.962 294.717 211.715 294.853 211.456 294.823L208.318 294.423L207.817 294.711L210.102 297.273C210.32 297.514 210.296 297.885 210.055 298.103C209.943 298.203 209.801 298.25 209.66 298.25H209.666Z" fill="#FF8000"/>
<path d="M222.098 306.578C221.892 306.578 221.697 306.472 221.585 306.284C221.421 306.001 221.521 305.642 221.803 305.477L240.256 294.826C240.538 294.661 240.898 294.761 241.062 295.044C241.227 295.327 241.127 295.686 240.845 295.851L222.392 306.502C222.298 306.555 222.198 306.578 222.098 306.578Z" fill="black"/>
<path d="M225.359 308.456C225.153 308.456 224.959 308.35 224.847 308.162C224.682 307.879 224.782 307.52 225.065 307.355L243.517 296.704C243.8 296.539 244.159 296.639 244.324 296.922C244.489 297.205 244.389 297.564 244.106 297.729L225.654 308.38C225.56 308.433 225.46 308.456 225.359 308.456Z" fill="black"/>
<path d="M228.615 310.338C228.409 310.338 228.215 310.232 228.103 310.044C227.938 309.761 228.038 309.402 228.321 309.237L242.11 301.277C242.393 301.112 242.752 301.212 242.917 301.495C243.082 301.777 242.982 302.136 242.699 302.301L228.91 310.262C228.815 310.315 228.715 310.338 228.615 310.338Z" fill="black"/>
<path d="M247.072 292.158C246.866 292.158 246.672 292.052 246.56 291.864C246.395 291.581 246.495 291.222 246.778 291.057L265.23 280.406C265.513 280.242 265.872 280.342 266.037 280.624C266.202 280.907 266.102 281.266 265.819 281.431L247.367 292.082C247.273 292.135 247.172 292.158 247.072 292.158Z" fill="black"/>
<path d="M250.326 294.042C250.12 294.042 249.926 293.936 249.814 293.748C249.649 293.465 249.749 293.106 250.032 292.941L268.484 282.29C268.767 282.125 269.126 282.225 269.291 282.508C269.456 282.79 269.356 283.15 269.073 283.314L250.621 293.965C250.526 294.018 250.426 294.042 250.326 294.042Z" fill="black"/>
<path d="M253.582 295.918C253.376 295.918 253.182 295.812 253.07 295.623C252.905 295.341 253.005 294.981 253.288 294.817L267.077 286.856C267.36 286.691 267.719 286.791 267.884 287.074C268.048 287.357 267.948 287.716 267.666 287.881L253.876 295.841C253.782 295.894 253.682 295.918 253.582 295.918Z" fill="black"/>
<path d="M146.399 254.34C146.216 254.276 146.028 254.234 145.84 254.217C145.651 254.199 145.457 254.199 145.263 254.217C145.068 254.24 144.874 254.282 144.686 254.346C144.497 254.411 144.309 254.494 144.126 254.6C143.738 254.823 143.502 255.071 143.414 255.335C143.326 255.6 143.384 255.877 143.59 256.16C143.797 256.442 144.15 256.731 144.639 257.014C145.127 257.296 145.634 257.508 146.122 257.638C146.611 257.761 147.088 257.802 147.547 257.755C148.006 257.708 148.43 257.573 148.831 257.337C149.184 257.131 149.425 256.937 149.555 256.743C149.684 256.548 149.714 256.36 149.643 256.189C149.572 256.013 149.408 255.854 149.154 255.706L149.596 255.5L147.647 256.625L145.999 255.671L149.779 253.493L150.962 254.176C151.739 254.623 152.24 255.1 152.458 255.612C152.675 256.124 152.652 256.625 152.363 257.125C152.081 257.626 151.568 258.091 150.827 258.521C149.996 258.998 149.096 259.316 148.112 259.475C147.135 259.634 146.14 259.628 145.139 259.451C144.138 259.28 143.184 258.933 142.289 258.415C141.583 258.009 141.07 257.585 140.741 257.149C140.411 256.713 140.252 256.272 140.258 255.836C140.264 255.4 140.423 254.976 140.735 254.576C141.047 254.176 141.489 253.811 142.06 253.475C142.566 253.186 143.108 252.957 143.685 252.786C144.262 252.615 144.85 252.515 145.445 252.474C146.04 252.433 146.623 252.456 147.182 252.545C147.741 252.633 148.26 252.786 148.736 253.01L146.399 254.358V254.34Z" fill="black"/>
<path d="M155.57 255.629L149.182 251.938L151.413 250.648L152.626 251.349L152.691 251.308C152.355 250.978 152.214 250.684 152.261 250.419C152.308 250.154 152.502 249.918 152.844 249.724C152.944 249.665 153.05 249.612 153.162 249.565C153.274 249.518 153.391 249.477 153.509 249.435L155.47 250.566C155.317 250.607 155.146 250.672 154.963 250.76C154.781 250.849 154.628 250.919 154.504 250.99C154.28 251.119 154.127 251.267 154.051 251.426C153.974 251.584 153.974 251.749 154.051 251.914C154.127 252.079 154.292 252.232 154.534 252.373L157.86 254.293L155.564 255.618L155.57 255.629Z" fill="black"/>
<path d="M163.558 251.158C162.863 251.558 162.133 251.823 161.362 251.947C160.591 252.07 159.831 252.07 159.072 251.935C158.312 251.799 157.605 251.546 156.952 251.169C156.298 250.793 155.857 250.386 155.621 249.945C155.392 249.509 155.38 249.068 155.598 248.62C155.816 248.178 156.269 247.755 156.964 247.354C157.658 246.954 158.389 246.689 159.16 246.565C159.931 246.442 160.691 246.442 161.45 246.577C162.21 246.712 162.916 246.966 163.57 247.342C164.223 247.719 164.665 248.125 164.9 248.567C165.13 249.003 165.136 249.444 164.924 249.892C164.706 250.333 164.253 250.757 163.558 251.158ZM161.874 250.169C162.068 250.057 162.168 249.921 162.18 249.762C162.192 249.603 162.116 249.433 161.951 249.25C161.786 249.068 161.539 248.879 161.209 248.685C160.879 248.491 160.549 248.349 160.231 248.255C159.913 248.161 159.619 248.12 159.348 248.125C159.077 248.131 158.842 248.19 158.648 248.302C158.442 248.42 158.33 248.561 158.312 248.72C158.294 248.879 158.371 249.05 158.53 249.232C158.695 249.415 158.942 249.603 159.278 249.798C159.613 249.992 159.937 250.133 160.255 250.227C160.573 250.322 160.873 250.363 161.15 250.357C161.427 250.345 161.668 250.28 161.874 250.163V250.169Z" fill="black"/>
<path d="M168.416 248.222L160.432 245.455L162.728 244.13L167.356 245.955L167.403 245.926L164.323 243.205L166.555 241.916L171.265 243.653L171.312 243.623L168.151 240.992L170.447 239.667L175.239 244.277L172.761 245.708L168.433 244.248L168.368 244.289L170.9 246.785L168.421 248.216L168.416 248.222Z" fill="black"/>
<path d="M175.018 237.025L176.684 237.985L172.474 240.416L170.808 239.457L175.018 237.025ZM170.096 238.096L172.392 236.772L178.256 240.157C178.345 240.21 178.433 240.24 178.527 240.257C178.615 240.275 178.71 240.275 178.804 240.257C178.898 240.24 178.992 240.198 179.092 240.14C179.163 240.098 179.234 240.045 179.31 239.986C179.387 239.922 179.44 239.875 179.475 239.845L181.424 240.587C181.353 240.664 181.241 240.77 181.1 240.905C180.953 241.04 180.759 241.188 180.511 241.347C180.011 241.665 179.516 241.888 179.022 242.018C178.527 242.147 178.038 242.177 177.561 242.106C177.085 242.035 176.625 241.876 176.184 241.612L170.102 238.102L170.096 238.096Z" fill="black"/>
<path d="M180.801 236.917L184.392 238.989L182.096 240.314L173.576 235.398L175.79 234.12L179.134 236.051L179.199 236.01C178.934 235.692 178.858 235.368 178.964 235.044C179.07 234.721 179.358 234.42 179.829 234.149C180.3 233.879 180.777 233.72 181.319 233.649C181.86 233.572 182.402 233.59 182.944 233.69C183.491 233.79 183.992 233.979 184.457 234.25L188.531 236.605L186.235 237.929L182.643 235.857C182.331 235.674 182.002 235.574 181.666 235.563C181.33 235.551 181.007 235.627 180.718 235.798C180.53 235.904 180.412 236.022 180.353 236.151C180.294 236.281 180.306 236.41 180.377 236.54C180.453 236.669 180.594 236.799 180.801 236.923V236.917Z" fill="black"/>
<path d="M421.373 324.565L390.783 342.229C387.759 343.984 384.02 343.984 380.996 342.229L350.406 324.565C348.448 323.438 348.448 320.61 350.406 319.482L380.996 301.818C384.02 300.063 387.759 300.063 390.783 301.818L421.373 319.482C423.331 320.61 423.331 323.438 421.373 324.572V324.565Z" fill="#D8DFEB"/>
<path d="M409.208 309.283L390.781 298.645C387.757 296.89 384.017 296.89 380.993 298.645L362.566 309.283H348.932V314.933C348.932 315.918 349.418 316.91 350.396 317.477L380.987 335.142C384.011 336.897 387.75 336.897 390.774 335.142L421.364 317.477C422.343 316.91 422.829 315.918 422.829 314.933V309.283H409.194H409.208Z" fill="#00E8BC"/>
<path d="M385.881 337.125C384.072 337.125 382.263 336.66 380.65 335.721L350.06 318.057C348.926 317.402 348.258 316.228 348.258 314.925V309.275C348.258 308.904 348.562 308.6 348.933 308.6H362.385L380.657 298.05C383.883 296.181 387.893 296.181 391.119 298.05L409.391 308.6H422.844C423.215 308.6 423.518 308.904 423.518 309.275V314.925C423.518 316.228 422.844 317.396 421.716 318.057L391.119 335.721C389.506 336.653 387.697 337.125 385.888 337.125H385.881ZM349.601 309.957V314.932C349.601 315.749 350.026 316.484 350.735 316.896L381.325 334.56C384.133 336.187 387.63 336.187 390.438 334.56L421.035 316.896C421.743 316.484 422.162 315.755 422.162 314.939V309.964H409.202C409.081 309.964 408.966 309.93 408.865 309.876L390.438 299.238C387.63 297.612 384.14 297.612 381.325 299.238L362.898 309.876C362.797 309.937 362.682 309.964 362.561 309.964H349.601V309.957Z" fill="black"/>
<path d="M421.371 311.288L390.781 328.952C387.757 330.707 384.018 330.707 380.994 328.952L350.404 311.288C348.446 310.161 348.446 307.333 350.404 306.206L380.994 288.541C384.018 286.786 387.757 286.786 390.781 288.541L421.371 306.206C423.329 307.333 423.329 310.161 421.371 311.295V311.288Z" fill="white"/>
<path d="M385.881 330.938C384.072 330.938 382.263 330.472 380.65 329.534L350.06 311.869C348.933 311.221 348.258 310.054 348.258 308.744C348.258 307.435 348.933 306.267 350.067 305.619L380.657 287.955C383.883 286.085 387.893 286.085 391.119 287.955L421.71 305.619C422.837 306.267 423.512 307.435 423.512 308.738C423.512 310.047 422.837 311.221 421.71 311.876C421.676 311.896 421.642 311.91 421.608 311.923L391.113 329.534C389.499 330.465 387.69 330.938 385.881 330.938ZM385.881 287.908C384.309 287.908 382.729 288.313 381.325 289.129L350.728 306.794C350.02 307.199 349.594 307.934 349.601 308.751C349.601 309.568 350.026 310.297 350.728 310.702L381.325 328.366C384.133 329.993 387.63 329.993 390.438 328.366L421.035 310.702C421.035 310.702 421.089 310.675 421.116 310.661C421.777 310.243 422.162 309.534 422.162 308.744C422.162 307.928 421.737 307.199 421.035 306.794L390.438 289.129C389.034 288.313 387.454 287.908 385.881 287.908Z" fill="black"/>
<path d="M380.721 313.594V309.592H386.486V305.879H382.834L387.93 302.936L393.026 305.879H389.375V311.259H383.61V314.168C387.269 314.593 391.211 313.986 394.045 312.352C398.548 309.754 398.548 305.542 394.045 302.943C389.543 300.345 382.247 300.345 377.751 302.943C373.249 305.542 373.249 309.754 377.751 312.352C378.649 312.872 379.662 313.284 380.735 313.594H380.721ZM380.742 315.41H380.721C378.892 315.005 377.178 314.377 375.699 313.527C370.077 310.28 370.077 305.015 375.699 301.769C381.322 298.522 390.448 298.522 396.07 301.769C401.693 305.015 401.693 310.28 396.07 313.527C391.926 315.923 385.885 316.551 380.742 315.417V315.41Z" fill="black"/>
<path d="M453 265.97L394.316 232.975L385.416 238.04L444.099 271.108L453 265.97Z" fill="#D8DFEB"/>
<path d="M441.424 264.311C441.424 264.311 446.199 261.633 448.732 260.114C450.758 258.884 451.916 256.496 451.916 253.167V134.715C451.916 122.269 445.765 114.889 438.24 110.475L405.027 91.2994C401.264 89.1287 397.863 88.6945 395.331 89.7075C392.87 90.7206 387.299 94.2662 387.299 94.2662L441.424 264.311Z" fill="#FFA600" stroke="black" stroke-width="1.44781" stroke-miterlimit="10"/>
<path d="M398.291 243.686L431.432 262.861C438.957 267.203 445.108 264.598 445.108 257.072V135.943C445.108 128.417 438.957 118.721 431.432 114.38L398.291 95.2044C390.766 90.8628 384.615 93.4678 384.615 100.993V222.123C384.615 229.72 390.693 239.344 398.291 243.686Z" fill="white"/>
<path d="M398.291 243.686L431.432 262.861C438.957 267.203 445.108 264.598 445.108 257.072V135.943C445.108 124.076 438.957 118.721 431.432 114.38L398.291 95.2044C390.766 90.8628 384.615 93.4678 384.615 100.993V222.123C384.615 229.72 390.693 239.344 398.291 243.686Z" stroke="black" stroke-width="1.44781" stroke-miterlimit="10" stroke-linecap="round" stroke-linejoin="round"/>
<path d="M408.778 113.511L420.862 120.458C421.875 121.036 422.671 120.675 422.671 119.662C422.671 118.649 421.875 117.346 420.862 116.767L408.778 109.821C407.765 109.242 406.969 109.604 406.969 110.617C406.969 111.63 407.837 112.932 408.778 113.511Z" fill="white" stroke="black" stroke-width="1.44781" stroke-miterlimit="10" stroke-linecap="round" stroke-linejoin="round"/>
<path d="M397.351 234.279L433.096 254.901C436.063 256.638 438.451 255.625 438.451 252.658C438.451 249.691 436.063 245.856 433.096 244.192L397.351 223.57C394.384 221.833 391.996 222.846 391.996 225.813C391.996 228.707 394.384 232.542 397.351 234.279Z" fill="#006FF7"/>
<path d="M393.596 206.854C393.596 206.854 416.244 218.359 435.854 211.485L435.419 194.698C421.092 211.485 393.596 206.854 393.596 206.854Z" fill="url(#paint0_linear_1228_11984)"/>
<path d="M393.596 206.855C393.596 206.855 421.092 211.486 435.419 194.698L435.492 173.931C420.079 196.869 393.596 206.855 393.596 206.855Z" fill="url(#paint1_linear_1228_11984)"/>
<path d="M391.131 145.495V205.915C391.131 207.145 391.999 208.665 393.085 209.316L435.777 233.99" stroke="black" stroke-width="1.44781" stroke-miterlimit="10" stroke-linecap="round" stroke-linejoin="round"/>
<path d="M390.775 121.326L409.951 132.325" stroke="black" stroke-width="1.44781" stroke-miterlimit="10" stroke-linecap="round" stroke-linejoin="round"/>
<path d="M390.775 125.24L409.951 136.238" stroke="black" stroke-width="1.44781" stroke-miterlimit="10" stroke-linecap="round" stroke-linejoin="round"/>
<path d="M390.775 129.138L405.103 137.387" stroke="black" stroke-width="1.44781" stroke-miterlimit="10" stroke-linecap="round" stroke-linejoin="round"/>
<path d="M416.686 136.231L435.861 147.302" stroke="black" stroke-width="1.44781" stroke-miterlimit="10" stroke-linecap="round" stroke-linejoin="round"/>
<path d="M416.686 140.142L435.861 151.213" stroke="black" stroke-width="1.44781" stroke-miterlimit="10" stroke-linecap="round" stroke-linejoin="round"/>
<path d="M416.686 144.046L431.013 152.295" stroke="black" stroke-width="1.44781" stroke-miterlimit="10" stroke-linecap="round" stroke-linejoin="round"/>
<path d="M393.596 206.856C393.596 206.856 416.244 218.361 435.854 211.487" stroke="#00FCD4" stroke-width="1.44781" stroke-miterlimit="10" stroke-linecap="round" stroke-linejoin="round"/>
<path d="M393.596 206.855C393.596 206.855 420.152 196.797 435.492 173.931" stroke="#FF8000" stroke-width="1.44781" stroke-miterlimit="10" stroke-linecap="round" stroke-linejoin="round"/>
<path d="M393.596 206.854C393.596 206.854 421.092 211.485 435.419 194.698" stroke="#0071FF" stroke-width="1.44781" stroke-miterlimit="10" stroke-linecap="round" stroke-linejoin="round"/>
<path d="M279.438 117.872C303.101 117.872 322.284 106.813 322.284 93.1712C322.284 79.5292 303.101 68.4702 279.438 68.4702C255.775 68.4702 236.592 79.5292 236.592 93.1712C236.592 106.813 255.775 117.872 279.438 117.872Z" fill="#D8DFEB"/>
<path d="M309.645 105.754V98.4963C317.429 93.9893 322.288 87.7848 322.288 80.9364V88.136C322.346 94.5161 318.132 100.838 309.762 105.696C309.703 105.754 309.703 105.754 309.645 105.754Z" fill="#00E8BC"/>
<path d="M309.646 105.755C299.168 111.843 284.593 114.067 271.072 112.545V105.228C273.765 105.521 276.574 105.697 279.442 105.697C291.208 105.697 301.861 102.946 309.646 98.4971V105.755Z" fill="#FFA600"/>
<path d="M279.442 80.9946L309.646 98.5545C301.919 103.003 291.266 105.754 279.442 105.754C276.574 105.754 273.765 105.578 271.072 105.286L279.442 80.9946Z" fill="#FFD200"/>
<path d="M322.29 80.9941C322.29 87.8425 317.431 94.047 309.646 98.554L279.443 80.9941L316.787 68.8778C320.299 72.4483 322.29 76.5456 322.29 80.9941Z" fill="#5CFFEB"/>
<path d="M316.787 68.8233L279.443 80.9397L309.822 63.4968C312.515 65.1358 314.856 66.8917 316.787 68.8233Z" fill="#00B1FF"/>
<path d="M271.072 112.544C263.053 111.607 255.385 109.383 249.18 105.754C240.81 100.954 236.654 94.5743 236.654 88.2527V88.1942V80.9946C236.654 92.9939 251.463 103.003 271.072 105.227V112.544Z" fill="#B6C2D3"/>
<path d="M309.821 63.5532L279.442 80.996L271.072 105.229C251.463 103.004 236.654 92.9953 236.654 80.996C236.654 67.3578 255.853 56.2951 279.5 56.2951C291.324 56.2366 302.094 59.0461 309.821 63.5532Z" fill="white"/>
<path d="M236.596 80.9945V88.1941V88.2526C236.596 94.5741 240.752 100.896 249.122 105.754C255.326 109.324 262.994 111.607 271.013 112.544C284.534 114.066 299.109 111.841 309.586 105.812C309.586 105.812 309.645 105.812 309.645 105.754C318.015 100.896 322.229 94.5156 322.171 88.1941V80.9945" stroke="black" stroke-width="1.4" stroke-miterlimit="10" stroke-linecap="round" stroke-linejoin="round"/>
<path d="M309.647 98.4965C301.921 102.945 291.268 105.696 279.444 105.696C276.576 105.696 273.766 105.52 271.074 105.228C251.465 103.004 236.656 92.9944 236.656 80.9951C236.656 67.3569 255.855 56.2942 279.502 56.2942C291.385 56.2942 302.155 59.1038 309.881 63.6108C312.574 65.1912 314.915 66.9472 316.788 68.8788C320.3 72.4493 322.29 76.6051 322.29 80.9951C322.29 87.8435 317.432 94.048 309.647 98.4965Z" stroke="black" stroke-width="1.4" stroke-miterlimit="10" stroke-linecap="round" stroke-linejoin="round"/>
<path d="M309.82 63.5532L279.441 80.9961L309.644 98.4974V105.756" stroke="black" stroke-width="1.4" stroke-miterlimit="10" stroke-linecap="round" stroke-linejoin="round"/>
<path d="M271.074 112.544V105.228L279.444 80.9951L316.789 68.8202" stroke="black" stroke-width="1.4" stroke-miterlimit="10" stroke-linecap="round" stroke-linejoin="round"/>
<defs>
<linearGradient id="paint0_linear_1228_11984" x1="393.576" y1="188.721" x2="435.82" y2="188.721" gradientUnits="userSpaceOnUse">
<stop stop-color="#CCFEF6"/>
<stop offset="1" stop-color="white"/>
</linearGradient>
<linearGradient id="paint1_linear_1228_11984" x1="393.576" y1="178.322" x2="435.465" y2="178.322" gradientUnits="userSpaceOnUse">
<stop stop-color="#FFE6CC"/>
<stop offset="1" stop-color="white"/>
</linearGradient>
</defs>
</svg>
